<svg viewBox="-537.5 -215.5 490.5 194.5" width="490.5" height="194.5" version="1.1" baseProfile="full" xmlns="http://www.w3.org/2000/svg" class="js-draw--autoresize"><style id="js-draw-style-sheet">path{stroke-linecap:round;stroke-linejoin:round;}text{white-space:pre;}</style><path d="M-47,-21l0-194.5l-490.5,0l0,194.5l490.5,0" fill="#ffffff" class="js-draw-image-background"></path><path d="M-211,-167q-1,53 -1,78q1,6 3,10q2,6 0,30q-1,8 -2,14" fill="none" stroke="#803380" stroke-width="4"></path><path d="M-217,-165q50,0 63,4q27,8 40,8q64,0 65,1" fill="none" stroke="#803380" stroke-width="4"></path><path d="M-49,-151q-5,21 -8,38q-5,25 -5,40q0,13 -4,29" fill="none" stroke="#803380" stroke-width="4"></path><path d="M-236,-44q59,5 69,11q3,2 37,4q34,2 39,4q5,2 24,2" fill="none" stroke="#803380" stroke-width="4"></path><path d="M-536,-214q0,1 0,1" fill="none" stroke="#803380" stroke-width="3"></path></svg>